<svg width="204" height="205" fill="none" xmlns="http://www.w3.org/2000/svg"><path d="M189.242 116.857c7.845-48.326-24.972-93.861-73.298-101.706C67.618 7.307 22.082 40.124 14.238 88.45 6.393 136.776 39.21 182.31 87.537 190.156c48.326 7.844 93.861-24.973 101.705-73.299z" fill="#003E6D"/><path d="M191.033 107.04c3.918-47.349-31.29-88.908-78.638-92.826-47.348-3.917-88.908 31.29-92.825 78.639-3.918 47.348 31.29 88.908 78.638 92.825 47.348 3.918 88.908-31.29 92.825-78.638z" fill="#7DCEF3"/><path d="M105.371 187.873A87.92 87.92 0 0 1 43.21 37.786a87.916 87.916 0 0 1 150.078 62.183 88.018 88.018 0 0 1-87.917 87.904zm0-172.037a84.134 84.134 0 1 0 84.134 84.133 84.224 84.224 0 0 0-84.134-84.133z" fill="#003E6D"/><path d="M133.002 166.673c36.835-15.258 54.327-57.488 39.07-94.323-15.258-36.835-57.488-54.328-94.323-39.07-36.836 15.258-54.328 57.488-39.07 94.323 15.258 36.836 57.487 54.328 94.323 39.07z" fill="#E5F2F8"/><circle cx="105.376" cy="99.976" r="20.8" fill="#FF763C"/><path d="M170.353 70.374a1.879 1.879 0 0 1-1.702-1.072 69.836 69.836 0 0 0-63.277-39.633A70.617 70.617 0 0 0 48.63 58.445a1.895 1.895 0 0 1-3.052-2.245 74.108 74.108 0 0 1 126.465 11.45 1.9 1.9 0 0 1-.789 2.481c-.279.157-.594.24-.914.243h.013zM105.374 174.04a74.115 74.115 0 0 1-74.078-73.36 74.107 74.107 0 0 1 9.427-36.927 1.894 1.894 0 1 1 3.303 1.854 70.312 70.312 0 0 0 61.348 104.662 1.895 1.895 0 0 1 1.891 1.892 1.89 1.89 0 0 1-1.891 1.891v-.012z" fill="#003E6D"/></svg>