<svg width="849" height="531" fill="none" xmlns="http://www.w3.org/2000/svg"><g filter="url(#a)"><path d="M114.649 3.707h50.557l113.752 235.179h-50.105l-18.808-39.573H72.669l-18.207 39.573H4.207L114.649 3.707zm76.587 156.335L140.379 53.211 90.875 160.042h100.361zm111.532-40.175c0-16.752 3.16-32.35 9.479-46.795 6.32-14.545 15.448-27.134 27.385-37.767 12.038-10.733 26.683-19.16 43.936-25.278 17.354-6.12 36.965-9.179 58.833-9.179 19.159 0 36.714 1.956 52.663 5.869 16.05 3.811 30.946 9.68 44.689 17.604l-21.969 36.112c-4.112-2.708-8.877-5.116-14.294-7.222-5.316-2.107-11.034-3.862-17.153-5.267-6.019-1.504-12.288-2.658-18.808-3.46a153.944 153.944 0 0 0-19.11-1.204c-15.247 0-28.839 1.906-40.776 5.718-11.937 3.711-22.018 8.977-30.244 15.798-8.125 6.721-14.344 14.796-18.657 24.226-4.214 9.328-6.32 19.61-6.32 30.845 0 11.636 2.207 22.319 6.62 32.05 4.414 9.73 10.784 18.156 19.11 25.278 8.426 7.022 18.658 12.539 30.695 16.551 12.137 3.912 25.83 5.868 41.077 5.868 6.922 0 13.793-.501 20.614-1.504 6.821-1.003 13.392-2.358 19.711-4.063a174.29 174.29 0 0 0 18.507-6.319c5.919-2.508 11.436-5.217 16.552-8.126l21.968 36.112c-12.84 8.226-27.686 14.696-44.538 19.41-16.852 4.615-34.758 6.922-53.717 6.922-24.175 0-45.39-3.11-63.647-9.329-18.257-6.32-33.504-14.946-45.742-25.88-12.238-11.034-21.466-23.975-27.686-38.821-6.118-14.946-9.178-30.996-9.178-48.149zm284.418 0c0-16.752 3.159-32.35 9.479-46.795 6.32-14.545 15.448-27.134 27.385-37.767 12.037-10.733 26.683-19.16 43.936-25.278C685.34 3.907 704.951.848 726.818.848c19.16 0 36.714 1.956 52.664 5.869 16.049 3.811 30.946 9.68 44.688 17.604l-21.968 36.112c-4.113-2.708-8.877-5.116-14.294-7.222-5.317-2.107-11.034-3.862-17.153-5.267-6.019-1.504-12.289-2.658-18.809-3.46a153.928 153.928 0 0 0-19.109-1.204c-15.247 0-28.839 1.906-40.776 5.718-11.937 3.711-22.019 8.977-30.244 15.798-8.125 6.721-14.345 14.796-18.658 24.226-4.213 9.328-6.32 19.61-6.32 30.845 0 11.636 2.207 22.319 6.621 32.05 4.414 9.73 10.783 18.156 19.109 25.278 8.426 7.022 18.658 12.539 30.695 16.551 12.138 3.912 25.83 5.868 41.078 5.868 6.921 0 13.792-.501 20.614-1.504 6.821-1.003 13.391-2.358 19.711-4.063a174.29 174.29 0 0 0 18.507-6.319c5.918-2.508 11.435-5.217 16.551-8.126l21.968 36.112c-12.839 8.226-27.685 14.696-44.538 19.41-16.852 4.615-34.757 6.922-53.716 6.922-24.175 0-45.391-3.11-63.647-9.329-18.257-6.32-33.504-14.946-45.742-25.88-12.238-11.034-21.467-23.975-27.686-38.821-6.119-14.946-9.178-30.996-9.178-48.149zM21.51 283.707h200.271v41.83H69.208v46.945h135.119v39.272H69.208v65.453h155.733v41.679H21.511V283.707zm268.92 165.212a312.908 312.908 0 0 0 25.88 13.091 227.141 227.141 0 0 0 27.385 9.78c9.429 2.608 19.31 4.614 29.642 6.019 10.432 1.404 21.516 2.106 33.253 2.106 14.144 0 26.181-.902 36.112-2.708 9.931-1.906 18.006-4.464 24.225-7.674 6.319-3.31 10.884-7.222 13.692-11.736 2.909-4.514 4.364-9.429 4.364-14.746 0-8.526-3.561-15.247-10.683-20.162-7.122-5.016-18.106-7.524-32.952-7.524-6.521 0-13.392.452-20.614 1.354a938.445 938.445 0 0 0-21.968 2.709 1876.082 1876.082 0 0 1-21.818 2.859c-7.122.802-13.843 1.203-20.163 1.203-10.532 0-20.664-1.354-30.394-4.062-9.63-2.709-18.206-6.771-25.73-12.188-7.423-5.417-13.341-12.188-17.755-20.313-4.413-8.125-6.62-17.604-6.62-28.438 0-6.42.853-12.79 2.558-19.109 1.805-6.32 4.614-12.339 8.426-18.056 3.912-5.818 8.928-11.185 15.047-16.1 6.119-5.016 13.491-9.329 22.118-12.94 8.727-3.611 18.758-6.42 30.093-8.426 11.436-2.107 24.426-3.16 38.971-3.16 10.533 0 21.116.602 31.749 1.805 10.633 1.104 20.965 2.709 30.996 4.815 10.131 2.107 19.861 4.665 29.19 7.674 9.329 2.909 18.006 6.169 26.031 9.78l-20.915 38.52c-6.62-2.909-13.743-5.567-21.366-7.975-7.624-2.508-15.599-4.664-23.924-6.47-8.326-1.806-16.953-3.21-25.881-4.213-8.827-1.103-17.855-1.655-27.083-1.655-13.141 0-23.975.953-32.501 2.859-8.426 1.906-15.147 4.363-20.163 7.373-5.015 2.909-8.526 6.219-10.532 9.93-1.906 3.612-2.859 7.223-2.859 10.834 0 7.022 3.16 12.79 9.479 17.304 6.32 4.413 15.95 6.62 28.89 6.62 5.216 0 11.184-.351 17.905-1.053 6.821-.803 13.943-1.655 21.366-2.558a801.925 801.925 0 0 1 22.871-2.408c7.825-.802 15.398-1.203 22.721-1.203 13.843 0 26.081 1.555 36.714 4.664 10.733 3.11 19.711 7.574 26.933 13.392 7.222 5.717 12.689 12.689 16.401 20.915 3.711 8.125 5.567 17.253 5.567 27.384 0 13.542-3.16 25.63-9.479 36.263-6.22 10.532-15.147 19.46-26.783 26.783-11.536 7.222-25.479 12.739-41.83 16.551-16.351 3.712-34.557 5.567-54.619 5.567-13.241 0-26.181-.852-38.821-2.558-12.639-1.605-24.776-3.912-36.412-6.921-11.536-3.11-22.57-6.771-33.103-10.984-10.432-4.313-20.112-9.028-29.04-14.144l25.429-38.67zm309.696 0a312.908 312.908 0 0 0 25.88 13.091 227.141 227.141 0 0 0 27.385 9.78c9.429 2.608 19.31 4.614 29.642 6.019 10.432 1.404 21.516 2.106 33.253 2.106 14.144 0 26.181-.902 36.112-2.708 9.93-1.906 18.005-4.464 24.225-7.674 6.319-3.31 10.883-7.222 13.692-11.736 2.909-4.514 4.364-9.429 4.364-14.746 0-8.526-3.561-15.247-10.683-20.162-7.122-5.016-18.107-7.524-32.953-7.524-6.52 0-13.391.452-20.613 1.354a938.522 938.522 0 0 0-21.969 2.709 1873.1 1873.1 0 0 1-21.817 2.859c-7.122.802-13.843 1.203-20.163 1.203-10.532 0-20.664-1.354-30.394-4.062-9.63-2.709-18.206-6.771-25.73-12.188-7.423-5.417-13.341-12.188-17.755-20.313-4.413-8.125-6.62-17.604-6.62-28.438 0-6.42.852-12.79 2.558-19.109 1.805-6.32 4.614-12.339 8.426-18.056 3.912-5.818 8.928-11.185 15.047-16.1 6.118-5.016 13.491-9.329 22.118-12.94 8.727-3.611 18.758-6.42 30.093-8.426 11.436-2.107 24.426-3.16 38.971-3.16 10.533 0 21.116.602 31.749 1.805 10.632 1.104 20.965 2.709 30.996 4.815 10.131 2.107 19.861 4.665 29.19 7.674 9.329 2.909 18.006 6.169 26.031 9.78l-20.915 38.52c-6.621-2.909-13.743-5.567-21.366-7.975-7.624-2.508-15.599-4.664-23.924-6.47-8.326-1.806-16.953-3.21-25.881-4.213-8.827-1.103-17.855-1.655-27.084-1.655-13.14 0-23.974.953-32.5 2.859-8.426 1.906-15.147 4.363-20.163 7.373-5.015 2.909-8.526 6.219-10.532 9.93-1.906 3.612-2.859 7.223-2.859 10.834 0 7.022 3.159 12.79 9.479 17.304 6.32 4.413 15.949 6.62 28.89 6.62 5.216 0 11.184-.351 17.905-1.053 6.821-.803 13.943-1.655 21.366-2.558a801.925 801.925 0 0 1 22.871-2.408c7.824-.802 15.398-1.203 22.721-1.203 13.843 0 26.08 1.555 36.713 4.664 10.734 3.11 19.712 7.574 26.934 13.392 7.222 5.717 12.689 12.689 16.401 20.915 3.711 8.125 5.567 17.253 5.567 27.384 0 13.542-3.16 25.63-9.479 36.263-6.22 10.532-15.147 19.46-26.783 26.783-11.536 7.222-25.479 12.739-41.83 16.551-16.351 3.712-34.557 5.567-54.619 5.567-13.241 0-26.181-.852-38.821-2.558-12.639-1.605-24.776-3.912-36.413-6.921-11.535-3.11-22.569-6.771-33.102-10.984-10.432-4.313-20.112-9.028-29.04-14.144l25.429-38.67z" fill="#54C9FF"/><path d="M114.649 3.707h50.557l113.752 235.179h-50.105l-18.808-39.573H72.669l-18.207 39.573H4.207L114.649 3.707zm76.587 156.335L140.379 53.211 90.875 160.042h100.361zm111.532-40.175c0-16.752 3.16-32.35 9.479-46.795 6.32-14.545 15.448-27.134 27.385-37.767 12.038-10.733 26.683-19.16 43.936-25.278 17.354-6.12 36.965-9.179 58.833-9.179 19.159 0 36.714 1.956 52.663 5.869 16.05 3.811 30.946 9.68 44.689 17.604l-21.969 36.112c-4.112-2.708-8.877-5.116-14.294-7.222-5.316-2.107-11.034-3.862-17.153-5.267-6.019-1.504-12.288-2.658-18.808-3.46a153.944 153.944 0 0 0-19.11-1.204c-15.247 0-28.839 1.906-40.776 5.718-11.937 3.711-22.018 8.977-30.244 15.798-8.125 6.721-14.344 14.796-18.657 24.226-4.214 9.328-6.32 19.61-6.32 30.845 0 11.636 2.207 22.319 6.62 32.05 4.414 9.73 10.784 18.156 19.11 25.278 8.426 7.022 18.658 12.539 30.695 16.551 12.137 3.912 25.83 5.868 41.077 5.868 6.922 0 13.793-.501 20.614-1.504 6.821-1.003 13.392-2.358 19.711-4.063a174.29 174.29 0 0 0 18.507-6.319c5.919-2.508 11.436-5.217 16.552-8.126l21.968 36.112c-12.84 8.226-27.686 14.696-44.538 19.41-16.852 4.615-34.758 6.922-53.717 6.922-24.175 0-45.39-3.11-63.647-9.329-18.257-6.32-33.504-14.946-45.742-25.88-12.238-11.034-21.466-23.975-27.686-38.821-6.118-14.946-9.178-30.996-9.178-48.149zm284.418 0c0-16.752 3.159-32.35 9.479-46.795 6.32-14.545 15.448-27.134 27.385-37.767 12.037-10.733 26.683-19.16 43.936-25.278C685.34 3.907 704.951.848 726.818.848c19.16 0 36.714 1.956 52.664 5.869 16.049 3.811 30.946 9.68 44.688 17.604l-21.968 36.112c-4.113-2.708-8.877-5.116-14.294-7.222-5.317-2.107-11.034-3.862-17.153-5.267-6.019-1.504-12.289-2.658-18.809-3.46a153.928 153.928 0 0 0-19.109-1.204c-15.247 0-28.839 1.906-40.776 5.718-11.937 3.711-22.019 8.977-30.244 15.798-8.125 6.721-14.345 14.796-18.658 24.226-4.213 9.328-6.32 19.61-6.32 30.845 0 11.636 2.207 22.319 6.621 32.05 4.414 9.73 10.783 18.156 19.109 25.278 8.426 7.022 18.658 12.539 30.695 16.551 12.138 3.912 25.83 5.868 41.078 5.868 6.921 0 13.792-.501 20.614-1.504 6.821-1.003 13.391-2.358 19.711-4.063a174.29 174.29 0 0 0 18.507-6.319c5.918-2.508 11.435-5.217 16.551-8.126l21.968 36.112c-12.839 8.226-27.685 14.696-44.538 19.41-16.852 4.615-34.757 6.922-53.716 6.922-24.175 0-45.391-3.11-63.647-9.329-18.257-6.32-33.504-14.946-45.742-25.88-12.238-11.034-21.467-23.975-27.686-38.821-6.119-14.946-9.178-30.996-9.178-48.149zM21.51 283.707h200.271v41.83H69.208v46.945h135.119v39.272H69.208v65.453h155.733v41.679H21.511V283.707zm268.92 165.212a312.908 312.908 0 0 0 25.88 13.091 227.141 227.141 0 0 0 27.385 9.78c9.429 2.608 19.31 4.614 29.642 6.019 10.432 1.404 21.516 2.106 33.253 2.106 14.144 0 26.181-.902 36.112-2.708 9.931-1.906 18.006-4.464 24.225-7.674 6.319-3.31 10.884-7.222 13.692-11.736 2.909-4.514 4.364-9.429 4.364-14.746 0-8.526-3.561-15.247-10.683-20.162-7.122-5.016-18.106-7.524-32.952-7.524-6.521 0-13.392.452-20.614 1.354a938.445 938.445 0 0 0-21.968 2.709 1876.082 1876.082 0 0 1-21.818 2.859c-7.122.802-13.843 1.203-20.163 1.203-10.532 0-20.664-1.354-30.394-4.062-9.63-2.709-18.206-6.771-25.73-12.188-7.423-5.417-13.341-12.188-17.755-20.313-4.413-8.125-6.62-17.604-6.62-28.438 0-6.42.853-12.79 2.558-19.109 1.805-6.32 4.614-12.339 8.426-18.056 3.912-5.818 8.928-11.185 15.047-16.1 6.119-5.016 13.491-9.329 22.118-12.94 8.727-3.611 18.758-6.42 30.093-8.426 11.436-2.107 24.426-3.16 38.971-3.16 10.533 0 21.116.602 31.749 1.805 10.633 1.104 20.965 2.709 30.996 4.815 10.131 2.107 19.861 4.665 29.19 7.674 9.329 2.909 18.006 6.169 26.031 9.78l-20.915 38.52c-6.62-2.909-13.743-5.567-21.366-7.975-7.624-2.508-15.599-4.664-23.924-6.47-8.326-1.806-16.953-3.21-25.881-4.213-8.827-1.103-17.855-1.655-27.083-1.655-13.141 0-23.975.953-32.501 2.859-8.426 1.906-15.147 4.363-20.163 7.373-5.015 2.909-8.526 6.219-10.532 9.93-1.906 3.612-2.859 7.223-2.859 10.834 0 7.022 3.16 12.79 9.479 17.304 6.32 4.413 15.95 6.62 28.89 6.62 5.216 0 11.184-.351 17.905-1.053 6.821-.803 13.943-1.655 21.366-2.558a801.925 801.925 0 0 1 22.871-2.408c7.825-.802 15.398-1.203 22.721-1.203 13.843 0 26.081 1.555 36.714 4.664 10.733 3.11 19.711 7.574 26.933 13.392 7.222 5.717 12.689 12.689 16.401 20.915 3.711 8.125 5.567 17.253 5.567 27.384 0 13.542-3.16 25.63-9.479 36.263-6.22 10.532-15.147 19.46-26.783 26.783-11.536 7.222-25.479 12.739-41.83 16.551-16.351 3.712-34.557 5.567-54.619 5.567-13.241 0-26.181-.852-38.821-2.558-12.639-1.605-24.776-3.912-36.412-6.921-11.536-3.11-22.57-6.771-33.103-10.984-10.432-4.313-20.112-9.028-29.04-14.144l25.429-38.67zm309.696 0a312.908 312.908 0 0 0 25.88 13.091 227.141 227.141 0 0 0 27.385 9.78c9.429 2.608 19.31 4.614 29.642 6.019 10.432 1.404 21.516 2.106 33.253 2.106 14.144 0 26.181-.902 36.112-2.708 9.93-1.906 18.005-4.464 24.225-7.674 6.319-3.31 10.883-7.222 13.692-11.736 2.909-4.514 4.364-9.429 4.364-14.746 0-8.526-3.561-15.247-10.683-20.162-7.122-5.016-18.107-7.524-32.953-7.524-6.52 0-13.391.452-20.613 1.354a938.522 938.522 0 0 0-21.969 2.709 1873.1 1873.1 0 0 1-21.817 2.859c-7.122.802-13.843 1.203-20.163 1.203-10.532 0-20.664-1.354-30.394-4.062-9.63-2.709-18.206-6.771-25.73-12.188-7.423-5.417-13.341-12.188-17.755-20.313-4.413-8.125-6.62-17.604-6.62-28.438 0-6.42.852-12.79 2.558-19.109 1.805-6.32 4.614-12.339 8.426-18.056 3.912-5.818 8.928-11.185 15.047-16.1 6.118-5.016 13.491-9.329 22.118-12.94 8.727-3.611 18.758-6.42 30.093-8.426 11.436-2.107 24.426-3.16 38.971-3.16 10.533 0 21.116.602 31.749 1.805 10.632 1.104 20.965 2.709 30.996 4.815 10.131 2.107 19.861 4.665 29.19 7.674 9.329 2.909 18.006 6.169 26.031 9.78l-20.915 38.52c-6.621-2.909-13.743-5.567-21.366-7.975-7.624-2.508-15.599-4.664-23.924-6.47-8.326-1.806-16.953-3.21-25.881-4.213-8.827-1.103-17.855-1.655-27.084-1.655-13.14 0-23.974.953-32.5 2.859-8.426 1.906-15.147 4.363-20.163 7.373-5.015 2.909-8.526 6.219-10.532 9.93-1.906 3.612-2.859 7.223-2.859 10.834 0 7.022 3.159 12.79 9.479 17.304 6.32 4.413 15.949 6.62 28.89 6.62 5.216 0 11.184-.351 17.905-1.053 6.821-.803 13.943-1.655 21.366-2.558a801.925 801.925 0 0 1 22.871-2.408c7.824-.802 15.398-1.203 22.721-1.203 13.843 0 26.08 1.555 36.713 4.664 10.734 3.11 19.712 7.574 26.934 13.392 7.222 5.717 12.689 12.689 16.401 20.915 3.711 8.125 5.567 17.253 5.567 27.384 0 13.542-3.16 25.63-9.479 36.263-6.22 10.532-15.147 19.46-26.783 26.783-11.536 7.222-25.479 12.739-41.83 16.551-16.351 3.712-34.557 5.567-54.619 5.567-13.241 0-26.181-.852-38.821-2.558-12.639-1.605-24.776-3.912-36.413-6.921-11.535-3.11-22.569-6.771-33.102-10.984-10.432-4.313-20.112-9.028-29.04-14.144l25.429-38.67z" fill="url(#b)" fill-opacity=".6"/><path d="M114.649 3.707h50.557l113.752 235.179h-50.105l-18.808-39.573H72.669l-18.207 39.573H4.207L114.649 3.707zm76.587 156.335L140.379 53.211 90.875 160.042h100.361zm111.532-40.175c0-16.752 3.16-32.35 9.479-46.795 6.32-14.545 15.448-27.134 27.385-37.767 12.038-10.733 26.683-19.16 43.936-25.278 17.354-6.12 36.965-9.179 58.833-9.179 19.159 0 36.714 1.956 52.663 5.869 16.05 3.811 30.946 9.68 44.689 17.604l-21.969 36.112c-4.112-2.708-8.877-5.116-14.294-7.222-5.316-2.107-11.034-3.862-17.153-5.267-6.019-1.504-12.288-2.658-18.808-3.46a153.944 153.944 0 0 0-19.11-1.204c-15.247 0-28.839 1.906-40.776 5.718-11.937 3.711-22.018 8.977-30.244 15.798-8.125 6.721-14.344 14.796-18.657 24.226-4.214 9.328-6.32 19.61-6.32 30.845 0 11.636 2.207 22.319 6.62 32.05 4.414 9.73 10.784 18.156 19.11 25.278 8.426 7.022 18.658 12.539 30.695 16.551 12.137 3.912 25.83 5.868 41.077 5.868 6.922 0 13.793-.501 20.614-1.504 6.821-1.003 13.392-2.358 19.711-4.063a174.29 174.29 0 0 0 18.507-6.319c5.919-2.508 11.436-5.217 16.552-8.126l21.968 36.112c-12.84 8.226-27.686 14.696-44.538 19.41-16.852 4.615-34.758 6.922-53.717 6.922-24.175 0-45.39-3.11-63.647-9.329-18.257-6.32-33.504-14.946-45.742-25.88-12.238-11.034-21.466-23.975-27.686-38.821-6.118-14.946-9.178-30.996-9.178-48.149zm284.418 0c0-16.752 3.159-32.35 9.479-46.795 6.32-14.545 15.448-27.134 27.385-37.767 12.037-10.733 26.683-19.16 43.936-25.278C685.34 3.907 704.951.848 726.818.848c19.16 0 36.714 1.956 52.664 5.869 16.049 3.811 30.946 9.68 44.688 17.604l-21.968 36.112c-4.113-2.708-8.877-5.116-14.294-7.222-5.317-2.107-11.034-3.862-17.153-5.267-6.019-1.504-12.289-2.658-18.809-3.46a153.928 153.928 0 0 0-19.109-1.204c-15.247 0-28.839 1.906-40.776 5.718-11.937 3.711-22.019 8.977-30.244 15.798-8.125 6.721-14.345 14.796-18.658 24.226-4.213 9.328-6.32 19.61-6.32 30.845 0 11.636 2.207 22.319 6.621 32.05 4.414 9.73 10.783 18.156 19.109 25.278 8.426 7.022 18.658 12.539 30.695 16.551 12.138 3.912 25.83 5.868 41.078 5.868 6.921 0 13.792-.501 20.614-1.504 6.821-1.003 13.391-2.358 19.711-4.063a174.29 174.29 0 0 0 18.507-6.319c5.918-2.508 11.435-5.217 16.551-8.126l21.968 36.112c-12.839 8.226-27.685 14.696-44.538 19.41-16.852 4.615-34.757 6.922-53.716 6.922-24.175 0-45.391-3.11-63.647-9.329-18.257-6.32-33.504-14.946-45.742-25.88-12.238-11.034-21.467-23.975-27.686-38.821-6.119-14.946-9.178-30.996-9.178-48.149zM21.51 283.707h200.271v41.83H69.208v46.945h135.119v39.272H69.208v65.453h155.733v41.679H21.511V283.707zm268.92 165.212a312.908 312.908 0 0 0 25.88 13.091 227.141 227.141 0 0 0 27.385 9.78c9.429 2.608 19.31 4.614 29.642 6.019 10.432 1.404 21.516 2.106 33.253 2.106 14.144 0 26.181-.902 36.112-2.708 9.931-1.906 18.006-4.464 24.225-7.674 6.319-3.31 10.884-7.222 13.692-11.736 2.909-4.514 4.364-9.429 4.364-14.746 0-8.526-3.561-15.247-10.683-20.162-7.122-5.016-18.106-7.524-32.952-7.524-6.521 0-13.392.452-20.614 1.354a938.445 938.445 0 0 0-21.968 2.709 1876.082 1876.082 0 0 1-21.818 2.859c-7.122.802-13.843 1.203-20.163 1.203-10.532 0-20.664-1.354-30.394-4.062-9.63-2.709-18.206-6.771-25.73-12.188-7.423-5.417-13.341-12.188-17.755-20.313-4.413-8.125-6.62-17.604-6.62-28.438 0-6.42.853-12.79 2.558-19.109 1.805-6.32 4.614-12.339 8.426-18.056 3.912-5.818 8.928-11.185 15.047-16.1 6.119-5.016 13.491-9.329 22.118-12.94 8.727-3.611 18.758-6.42 30.093-8.426 11.436-2.107 24.426-3.16 38.971-3.16 10.533 0 21.116.602 31.749 1.805 10.633 1.104 20.965 2.709 30.996 4.815 10.131 2.107 19.861 4.665 29.19 7.674 9.329 2.909 18.006 6.169 26.031 9.78l-20.915 38.52c-6.62-2.909-13.743-5.567-21.366-7.975-7.624-2.508-15.599-4.664-23.924-6.47-8.326-1.806-16.953-3.21-25.881-4.213-8.827-1.103-17.855-1.655-27.083-1.655-13.141 0-23.975.953-32.501 2.859-8.426 1.906-15.147 4.363-20.163 7.373-5.015 2.909-8.526 6.219-10.532 9.93-1.906 3.612-2.859 7.223-2.859 10.834 0 7.022 3.16 12.79 9.479 17.304 6.32 4.413 15.95 6.62 28.89 6.62 5.216 0 11.184-.351 17.905-1.053 6.821-.803 13.943-1.655 21.366-2.558a801.925 801.925 0 0 1 22.871-2.408c7.825-.802 15.398-1.203 22.721-1.203 13.843 0 26.081 1.555 36.714 4.664 10.733 3.11 19.711 7.574 26.933 13.392 7.222 5.717 12.689 12.689 16.401 20.915 3.711 8.125 5.567 17.253 5.567 27.384 0 13.542-3.16 25.63-9.479 36.263-6.22 10.532-15.147 19.46-26.783 26.783-11.536 7.222-25.479 12.739-41.83 16.551-16.351 3.712-34.557 5.567-54.619 5.567-13.241 0-26.181-.852-38.821-2.558-12.639-1.605-24.776-3.912-36.412-6.921-11.536-3.11-22.57-6.771-33.103-10.984-10.432-4.313-20.112-9.028-29.04-14.144l25.429-38.67zm309.696 0a312.908 312.908 0 0 0 25.88 13.091 227.141 227.141 0 0 0 27.385 9.78c9.429 2.608 19.31 4.614 29.642 6.019 10.432 1.404 21.516 2.106 33.253 2.106 14.144 0 26.181-.902 36.112-2.708 9.93-1.906 18.005-4.464 24.225-7.674 6.319-3.31 10.883-7.222 13.692-11.736 2.909-4.514 4.364-9.429 4.364-14.746 0-8.526-3.561-15.247-10.683-20.162-7.122-5.016-18.107-7.524-32.953-7.524-6.52 0-13.391.452-20.613 1.354a938.522 938.522 0 0 0-21.969 2.709 1873.1 1873.1 0 0 1-21.817 2.859c-7.122.802-13.843 1.203-20.163 1.203-10.532 0-20.664-1.354-30.394-4.062-9.63-2.709-18.206-6.771-25.73-12.188-7.423-5.417-13.341-12.188-17.755-20.313-4.413-8.125-6.62-17.604-6.62-28.438 0-6.42.852-12.79 2.558-19.109 1.805-6.32 4.614-12.339 8.426-18.056 3.912-5.818 8.928-11.185 15.047-16.1 6.118-5.016 13.491-9.329 22.118-12.94 8.727-3.611 18.758-6.42 30.093-8.426 11.436-2.107 24.426-3.16 38.971-3.16 10.533 0 21.116.602 31.749 1.805 10.632 1.104 20.965 2.709 30.996 4.815 10.131 2.107 19.861 4.665 29.19 7.674 9.329 2.909 18.006 6.169 26.031 9.78l-20.915 38.52c-6.621-2.909-13.743-5.567-21.366-7.975-7.624-2.508-15.599-4.664-23.924-6.47-8.326-1.806-16.953-3.21-25.881-4.213-8.827-1.103-17.855-1.655-27.084-1.655-13.14 0-23.974.953-32.5 2.859-8.426 1.906-15.147 4.363-20.163 7.373-5.015 2.909-8.526 6.219-10.532 9.93-1.906 3.612-2.859 7.223-2.859 10.834 0 7.022 3.159 12.79 9.479 17.304 6.32 4.413 15.949 6.62 28.89 6.62 5.216 0 11.184-.351 17.905-1.053 6.821-.803 13.943-1.655 21.366-2.558a801.925 801.925 0 0 1 22.871-2.408c7.824-.802 15.398-1.203 22.721-1.203 13.843 0 26.08 1.555 36.713 4.664 10.734 3.11 19.712 7.574 26.934 13.392 7.222 5.717 12.689 12.689 16.401 20.915 3.711 8.125 5.567 17.253 5.567 27.384 0 13.542-3.16 25.63-9.479 36.263-6.22 10.532-15.147 19.46-26.783 26.783-11.536 7.222-25.479 12.739-41.83 16.551-16.351 3.712-34.557 5.567-54.619 5.567-13.241 0-26.181-.852-38.821-2.558-12.639-1.605-24.776-3.912-36.413-6.921-11.535-3.11-22.569-6.771-33.102-10.984-10.432-4.313-20.112-9.028-29.04-14.144l25.429-38.67z" fill="url(#c)" fill-opacity=".5"/></g><defs><radialGradient id="b" cx="0" cy="0" r="1" gradientUnits="userSpaceOnUse" gradientTransform="rotate(-28.109 867.635 88.723) scale(287.109 693.863)"><stop offset=".052" stop-color="#000E1C"/><stop offset=".5" stop-color="#002137" stop-opacity="0"/></radialGradient><radialGradient id="c" cx="0" cy="0" r="1" gradientUnits="userSpaceOnUse" gradientTransform="rotate(-169.347 421.206 63.496) scale(152.052 370.033)"><stop offset=".448"/><stop offset="1" stop-opacity="0"/></radialGradient><filter id="a" x=".207" y=".848" width="848.578" height="529.348" filterUnits="userSpaceOnUse" color-interpolation-filters="sRGB"><feFlood flood-opacity="0" result="BackgroundImageFix"/><feColorMatrix in="SourceAlpha" values="0 0 0 0 0 0 0 0 0 0 0 0 0 0 0 0 0 0 127 0" result="hardAlpha"/><feOffset dy="4"/><feGaussianBlur stdDeviation="2"/><feComposite in2="hardAlpha" operator="out"/><feColorMatrix values="0 0 0 0 0 0 0 0 0 0 0 0 0 0 0 0 0 0 0.25 0"/><feBlend in2="BackgroundImageFix" result="effect1_dropShadow_194_2258"/><feBlend in="SourceGraphic" in2="effect1_dropShadow_194_2258" result="shape"/></filter></defs></svg>