<svg width="849" height="531" viewBox="0 0 849 531" fill="none" xmlns="http://www.w3.org/2000/svg">
<g filter="url(#filter0_d_194_2258)">
<path d="M114.649 3.70718H165.206L278.958 238.886H228.853L210.045 199.313H72.6689L54.4624 238.886H4.20667L114.649 3.70718ZM191.236 160.042L140.379 53.2106L90.8753 160.042H191.236ZM302.768 119.867C302.768 103.115 305.928 87.5169 312.247 73.0722C318.567 58.5271 327.695 45.9381 339.632 35.3051C351.67 24.5718 366.315 16.1457 383.568 10.0268C400.922 3.9078 420.533 0.848315 442.401 0.848315C461.56 0.848315 479.115 2.80438 495.064 6.7165C511.114 10.5283 526.01 16.3965 539.753 24.3211L517.784 60.433C513.672 57.7246 508.907 55.3171 503.49 53.2106C498.174 51.1041 492.456 49.3486 486.337 47.9443C480.318 46.4396 474.049 45.286 467.529 44.4836C461.109 43.6811 454.739 43.2798 448.419 43.2798C433.172 43.2798 419.58 45.1857 407.643 48.9976C395.706 52.7091 385.625 57.9754 377.399 64.7965C369.274 71.5174 363.055 79.5924 358.742 89.0216C354.528 98.3505 352.422 108.632 352.422 119.867C352.422 131.503 354.629 142.186 359.042 151.917C363.456 161.647 369.826 170.073 378.152 177.195C386.578 184.217 396.81 189.734 408.847 193.746C420.984 197.658 434.677 199.614 449.924 199.614C456.846 199.614 463.717 199.113 470.538 198.11C477.359 197.107 483.93 195.752 490.249 194.047C496.669 192.242 502.838 190.135 508.756 187.728C514.675 185.22 520.192 182.511 525.308 179.602L547.276 215.714C534.436 223.94 519.59 230.41 502.738 235.124C485.886 239.739 467.98 242.046 449.021 242.046C424.846 242.046 403.631 238.936 385.374 232.717C367.117 226.397 351.87 217.771 339.632 206.837C327.394 195.803 318.166 182.862 311.946 168.016C305.828 153.07 302.768 137.02 302.768 119.867ZM587.186 119.867C587.186 103.115 590.345 87.5169 596.665 73.0722C602.985 58.5271 612.113 45.9381 624.05 35.3051C636.087 24.5718 650.733 16.1457 667.986 10.0268C685.34 3.9078 704.951 0.848315 726.818 0.848315C745.978 0.848315 763.532 2.80438 779.482 6.7165C795.531 10.5283 810.428 16.3965 824.17 24.3211L802.202 60.433C798.089 57.7246 793.325 55.3171 787.908 53.2106C782.591 51.1041 776.874 49.3486 770.755 47.9443C764.736 46.4396 758.466 45.286 751.946 44.4836C745.526 43.6811 739.157 43.2798 732.837 43.2798C717.59 43.2798 703.998 45.1857 692.061 48.9976C680.124 52.7091 670.042 57.9754 661.817 64.7965C653.692 71.5174 647.472 79.5924 643.159 89.0216C638.946 98.3505 636.839 108.632 636.839 119.867C636.839 131.503 639.046 142.186 643.46 151.917C647.874 161.647 654.243 170.073 662.569 177.195C670.995 184.217 681.227 189.734 693.264 193.746C705.402 197.658 719.094 199.614 734.342 199.614C741.263 199.614 748.134 199.113 754.956 198.11C761.777 197.107 768.347 195.752 774.667 194.047C781.087 192.242 787.256 190.135 793.174 187.728C799.092 185.22 804.609 182.511 809.725 179.602L831.693 215.714C818.854 223.94 804.008 230.41 787.155 235.124C770.303 239.739 752.398 242.046 733.439 242.046C709.264 242.046 688.048 238.936 669.792 232.717C651.535 226.397 636.288 217.771 624.05 206.837C611.812 195.803 602.583 182.862 596.364 168.016C590.245 153.07 587.186 137.02 587.186 119.867ZM21.5103 283.707H221.781V325.537H69.2081V372.482H204.327V411.754H69.2081V477.207H224.941V518.886H21.5103V283.707ZM290.43 448.919C298.956 453.734 307.583 458.098 316.31 462.01C325.137 465.822 334.266 469.082 343.695 471.79C353.124 474.398 363.005 476.404 373.337 477.809C383.769 479.213 394.853 479.915 406.59 479.915C420.734 479.915 432.771 479.013 442.702 477.207C452.633 475.301 460.708 472.743 466.927 469.533C473.246 466.223 477.811 462.311 480.619 457.797C483.528 453.283 484.983 448.368 484.983 443.051C484.983 434.525 481.422 427.804 474.3 422.889C467.178 417.873 456.194 415.365 441.348 415.365C434.827 415.365 427.956 415.817 420.734 416.719C413.511 417.522 406.189 418.425 398.766 419.428C391.443 420.431 384.17 421.384 376.948 422.287C369.826 423.089 363.105 423.49 356.785 423.49C346.253 423.49 336.121 422.136 326.391 419.428C316.761 416.719 308.185 412.657 300.661 407.24C293.238 401.823 287.32 395.052 282.906 386.927C278.493 378.802 276.286 369.323 276.286 358.489C276.286 352.069 277.139 345.699 278.844 339.38C280.649 333.06 283.458 327.041 287.27 321.324C291.182 315.506 296.198 310.139 302.317 305.224C308.436 300.208 315.808 295.895 324.435 292.284C333.162 288.673 343.193 285.864 354.528 283.858C365.964 281.751 378.954 280.698 393.499 280.698C404.032 280.698 414.615 281.3 425.248 282.503C435.881 283.607 446.213 285.212 456.244 287.318C466.375 289.425 476.105 291.983 485.434 294.992C494.763 297.901 503.44 301.161 511.465 304.772L490.55 343.292C483.93 340.383 476.807 337.725 469.184 335.317C461.56 332.809 453.585 330.653 445.26 328.847C436.934 327.041 428.307 325.637 419.379 324.634C410.552 323.531 401.524 322.979 392.296 322.979C379.155 322.979 368.321 323.932 359.795 325.838C351.369 327.744 344.648 330.201 339.632 333.211C334.617 336.12 331.106 339.43 329.1 343.141C327.194 346.753 326.241 350.364 326.241 353.975C326.241 360.997 329.401 366.765 335.72 371.279C342.04 375.692 351.67 377.899 364.61 377.899C369.826 377.899 375.794 377.548 382.515 376.846C389.336 376.043 396.458 375.191 403.881 374.288C411.405 373.385 419.028 372.583 426.752 371.88C434.577 371.078 442.15 370.677 449.473 370.677C463.316 370.677 475.554 372.232 486.187 375.341C496.92 378.451 505.898 382.915 513.12 388.733C520.342 394.45 525.809 401.422 529.521 409.648C533.232 417.773 535.088 426.901 535.088 437.032C535.088 450.574 531.928 462.662 525.609 473.295C519.389 483.827 510.462 492.755 498.826 500.078C487.29 507.3 473.347 512.817 456.996 516.629C440.645 520.341 422.439 522.196 402.377 522.196C389.136 522.196 376.196 521.344 363.556 519.638C350.917 518.033 338.78 515.726 327.144 512.717C315.608 509.607 304.574 505.946 294.041 501.733C283.609 497.42 273.929 492.705 265.001 487.589L290.43 448.919ZM600.126 448.919C608.652 453.734 617.279 458.098 626.006 462.01C634.833 465.822 643.962 469.082 653.391 471.79C662.82 474.398 672.701 476.404 683.033 477.809C693.465 479.213 704.549 479.915 716.286 479.915C730.43 479.915 742.467 479.013 752.398 477.207C762.328 475.301 770.403 472.743 776.623 469.533C782.942 466.223 787.506 462.311 790.315 457.797C793.224 453.283 794.679 448.368 794.679 443.051C794.679 434.525 791.118 427.804 783.996 422.889C776.874 417.873 765.889 415.365 751.043 415.365C744.523 415.365 737.652 415.817 730.43 416.719C723.207 417.522 715.884 418.425 708.461 419.428C701.139 420.431 693.866 421.384 686.644 422.287C679.522 423.089 672.801 423.49 666.481 423.49C655.949 423.49 645.817 422.136 636.087 419.428C626.457 416.719 617.881 412.657 610.357 407.24C602.934 401.823 597.016 395.052 592.602 386.927C588.189 378.802 585.982 369.323 585.982 358.489C585.982 352.069 586.834 345.699 588.54 339.38C590.345 333.06 593.154 327.041 596.966 321.324C600.878 315.506 605.894 310.139 612.013 305.224C618.131 300.208 625.504 295.895 634.131 292.284C642.858 288.673 652.889 285.864 664.224 283.858C675.66 281.751 688.65 280.698 703.195 280.698C713.728 280.698 724.311 281.3 734.944 282.503C745.576 283.607 755.909 285.212 765.94 287.318C776.071 289.425 785.801 291.983 795.13 294.992C804.459 297.901 813.136 301.161 821.161 304.772L800.246 343.292C793.625 340.383 786.503 337.725 778.88 335.317C771.256 332.809 763.281 330.653 754.956 328.847C746.63 327.041 738.003 325.637 729.075 324.634C720.248 323.531 711.22 322.979 701.991 322.979C688.851 322.979 678.017 323.932 669.491 325.838C661.065 327.744 654.344 330.201 649.328 333.211C644.313 336.12 640.802 339.43 638.796 343.141C636.89 346.753 635.937 350.364 635.937 353.975C635.937 360.997 639.096 366.765 645.416 371.279C651.736 375.692 661.365 377.899 674.306 377.899C679.522 377.899 685.49 377.548 692.211 376.846C699.032 376.043 706.154 375.191 713.577 374.288C721.101 373.385 728.724 372.583 736.448 371.88C744.272 371.078 751.846 370.677 759.169 370.677C773.012 370.677 785.249 372.232 795.882 375.341C806.616 378.451 815.594 382.915 822.816 388.733C830.038 394.45 835.505 401.422 839.217 409.648C842.928 417.773 844.784 426.901 844.784 437.032C844.784 450.574 841.624 462.662 835.305 473.295C829.085 483.827 820.158 492.755 808.522 500.078C796.986 507.3 783.043 512.817 766.692 516.629C750.341 520.341 732.135 522.196 712.073 522.196C698.832 522.196 685.892 521.344 673.252 519.638C660.613 518.033 648.476 515.726 636.839 512.717C625.304 509.607 614.27 505.946 603.737 501.733C593.305 497.42 583.625 492.705 574.697 487.589L600.126 448.919Z" fill="#54C9FF"/>
<path d="M114.649 3.70718H165.206L278.958 238.886H228.853L210.045 199.313H72.6689L54.4624 238.886H4.20667L114.649 3.70718ZM191.236 160.042L140.379 53.2106L90.8753 160.042H191.236ZM302.768 119.867C302.768 103.115 305.928 87.5169 312.247 73.0722C318.567 58.5271 327.695 45.9381 339.632 35.3051C351.67 24.5718 366.315 16.1457 383.568 10.0268C400.922 3.9078 420.533 0.848315 442.401 0.848315C461.56 0.848315 479.115 2.80438 495.064 6.7165C511.114 10.5283 526.01 16.3965 539.753 24.3211L517.784 60.433C513.672 57.7246 508.907 55.3171 503.49 53.2106C498.174 51.1041 492.456 49.3486 486.337 47.9443C480.318 46.4396 474.049 45.286 467.529 44.4836C461.109 43.6811 454.739 43.2798 448.419 43.2798C433.172 43.2798 419.58 45.1857 407.643 48.9976C395.706 52.7091 385.625 57.9754 377.399 64.7965C369.274 71.5174 363.055 79.5924 358.742 89.0216C354.528 98.3505 352.422 108.632 352.422 119.867C352.422 131.503 354.629 142.186 359.042 151.917C363.456 161.647 369.826 170.073 378.152 177.195C386.578 184.217 396.81 189.734 408.847 193.746C420.984 197.658 434.677 199.614 449.924 199.614C456.846 199.614 463.717 199.113 470.538 198.11C477.359 197.107 483.93 195.752 490.249 194.047C496.669 192.242 502.838 190.135 508.756 187.728C514.675 185.22 520.192 182.511 525.308 179.602L547.276 215.714C534.436 223.94 519.59 230.41 502.738 235.124C485.886 239.739 467.98 242.046 449.021 242.046C424.846 242.046 403.631 238.936 385.374 232.717C367.117 226.397 351.87 217.771 339.632 206.837C327.394 195.803 318.166 182.862 311.946 168.016C305.828 153.07 302.768 137.02 302.768 119.867ZM587.186 119.867C587.186 103.115 590.345 87.5169 596.665 73.0722C602.985 58.5271 612.113 45.9381 624.05 35.3051C636.087 24.5718 650.733 16.1457 667.986 10.0268C685.34 3.9078 704.951 0.848315 726.818 0.848315C745.978 0.848315 763.532 2.80438 779.482 6.7165C795.531 10.5283 810.428 16.3965 824.17 24.3211L802.202 60.433C798.089 57.7246 793.325 55.3171 787.908 53.2106C782.591 51.1041 776.874 49.3486 770.755 47.9443C764.736 46.4396 758.466 45.286 751.946 44.4836C745.526 43.6811 739.157 43.2798 732.837 43.2798C717.59 43.2798 703.998 45.1857 692.061 48.9976C680.124 52.7091 670.042 57.9754 661.817 64.7965C653.692 71.5174 647.472 79.5924 643.159 89.0216C638.946 98.3505 636.839 108.632 636.839 119.867C636.839 131.503 639.046 142.186 643.46 151.917C647.874 161.647 654.243 170.073 662.569 177.195C670.995 184.217 681.227 189.734 693.264 193.746C705.402 197.658 719.094 199.614 734.342 199.614C741.263 199.614 748.134 199.113 754.956 198.11C761.777 197.107 768.347 195.752 774.667 194.047C781.087 192.242 787.256 190.135 793.174 187.728C799.092 185.22 804.609 182.511 809.725 179.602L831.693 215.714C818.854 223.94 804.008 230.41 787.155 235.124C770.303 239.739 752.398 242.046 733.439 242.046C709.264 242.046 688.048 238.936 669.792 232.717C651.535 226.397 636.288 217.771 624.05 206.837C611.812 195.803 602.583 182.862 596.364 168.016C590.245 153.07 587.186 137.02 587.186 119.867ZM21.5103 283.707H221.781V325.537H69.2081V372.482H204.327V411.754H69.2081V477.207H224.941V518.886H21.5103V283.707ZM290.43 448.919C298.956 453.734 307.583 458.098 316.31 462.01C325.137 465.822 334.266 469.082 343.695 471.79C353.124 474.398 363.005 476.404 373.337 477.809C383.769 479.213 394.853 479.915 406.59 479.915C420.734 479.915 432.771 479.013 442.702 477.207C452.633 475.301 460.708 472.743 466.927 469.533C473.246 466.223 477.811 462.311 480.619 457.797C483.528 453.283 484.983 448.368 484.983 443.051C484.983 434.525 481.422 427.804 474.3 422.889C467.178 417.873 456.194 415.365 441.348 415.365C434.827 415.365 427.956 415.817 420.734 416.719C413.511 417.522 406.189 418.425 398.766 419.428C391.443 420.431 384.17 421.384 376.948 422.287C369.826 423.089 363.105 423.49 356.785 423.49C346.253 423.49 336.121 422.136 326.391 419.428C316.761 416.719 308.185 412.657 300.661 407.24C293.238 401.823 287.32 395.052 282.906 386.927C278.493 378.802 276.286 369.323 276.286 358.489C276.286 352.069 277.139 345.699 278.844 339.38C280.649 333.06 283.458 327.041 287.27 321.324C291.182 315.506 296.198 310.139 302.317 305.224C308.436 300.208 315.808 295.895 324.435 292.284C333.162 288.673 343.193 285.864 354.528 283.858C365.964 281.751 378.954 280.698 393.499 280.698C404.032 280.698 414.615 281.3 425.248 282.503C435.881 283.607 446.213 285.212 456.244 287.318C466.375 289.425 476.105 291.983 485.434 294.992C494.763 297.901 503.44 301.161 511.465 304.772L490.55 343.292C483.93 340.383 476.807 337.725 469.184 335.317C461.56 332.809 453.585 330.653 445.26 328.847C436.934 327.041 428.307 325.637 419.379 324.634C410.552 323.531 401.524 322.979 392.296 322.979C379.155 322.979 368.321 323.932 359.795 325.838C351.369 327.744 344.648 330.201 339.632 333.211C334.617 336.12 331.106 339.43 329.1 343.141C327.194 346.753 326.241 350.364 326.241 353.975C326.241 360.997 329.401 366.765 335.72 371.279C342.04 375.692 351.67 377.899 364.61 377.899C369.826 377.899 375.794 377.548 382.515 376.846C389.336 376.043 396.458 375.191 403.881 374.288C411.405 373.385 419.028 372.583 426.752 371.88C434.577 371.078 442.15 370.677 449.473 370.677C463.316 370.677 475.554 372.232 486.187 375.341C496.92 378.451 505.898 382.915 513.12 388.733C520.342 394.45 525.809 401.422 529.521 409.648C533.232 417.773 535.088 426.901 535.088 437.032C535.088 450.574 531.928 462.662 525.609 473.295C519.389 483.827 510.462 492.755 498.826 500.078C487.29 507.3 473.347 512.817 456.996 516.629C440.645 520.341 422.439 522.196 402.377 522.196C389.136 522.196 376.196 521.344 363.556 519.638C350.917 518.033 338.78 515.726 327.144 512.717C315.608 509.607 304.574 505.946 294.041 501.733C283.609 497.42 273.929 492.705 265.001 487.589L290.43 448.919ZM600.126 448.919C608.652 453.734 617.279 458.098 626.006 462.01C634.833 465.822 643.962 469.082 653.391 471.79C662.82 474.398 672.701 476.404 683.033 477.809C693.465 479.213 704.549 479.915 716.286 479.915C730.43 479.915 742.467 479.013 752.398 477.207C762.328 475.301 770.403 472.743 776.623 469.533C782.942 466.223 787.506 462.311 790.315 457.797C793.224 453.283 794.679 448.368 794.679 443.051C794.679 434.525 791.118 427.804 783.996 422.889C776.874 417.873 765.889 415.365 751.043 415.365C744.523 415.365 737.652 415.817 730.43 416.719C723.207 417.522 715.884 418.425 708.461 419.428C701.139 420.431 693.866 421.384 686.644 422.287C679.522 423.089 672.801 423.49 666.481 423.49C655.949 423.49 645.817 422.136 636.087 419.428C626.457 416.719 617.881 412.657 610.357 407.24C602.934 401.823 597.016 395.052 592.602 386.927C588.189 378.802 585.982 369.323 585.982 358.489C585.982 352.069 586.834 345.699 588.54 339.38C590.345 333.06 593.154 327.041 596.966 321.324C600.878 315.506 605.894 310.139 612.013 305.224C618.131 300.208 625.504 295.895 634.131 292.284C642.858 288.673 652.889 285.864 664.224 283.858C675.66 281.751 688.65 280.698 703.195 280.698C713.728 280.698 724.311 281.3 734.944 282.503C745.576 283.607 755.909 285.212 765.94 287.318C776.071 289.425 785.801 291.983 795.13 294.992C804.459 297.901 813.136 301.161 821.161 304.772L800.246 343.292C793.625 340.383 786.503 337.725 778.88 335.317C771.256 332.809 763.281 330.653 754.956 328.847C746.63 327.041 738.003 325.637 729.075 324.634C720.248 323.531 711.22 322.979 701.991 322.979C688.851 322.979 678.017 323.932 669.491 325.838C661.065 327.744 654.344 330.201 649.328 333.211C644.313 336.12 640.802 339.43 638.796 343.141C636.89 346.753 635.937 350.364 635.937 353.975C635.937 360.997 639.096 366.765 645.416 371.279C651.736 375.692 661.365 377.899 674.306 377.899C679.522 377.899 685.49 377.548 692.211 376.846C699.032 376.043 706.154 375.191 713.577 374.288C721.101 373.385 728.724 372.583 736.448 371.88C744.272 371.078 751.846 370.677 759.169 370.677C773.012 370.677 785.249 372.232 795.882 375.341C806.616 378.451 815.594 382.915 822.816 388.733C830.038 394.45 835.505 401.422 839.217 409.648C842.928 417.773 844.784 426.901 844.784 437.032C844.784 450.574 841.624 462.662 835.305 473.295C829.085 483.827 820.158 492.755 808.522 500.078C796.986 507.3 783.043 512.817 766.692 516.629C750.341 520.341 732.135 522.196 712.073 522.196C698.832 522.196 685.892 521.344 673.252 519.638C660.613 518.033 648.476 515.726 636.839 512.717C625.304 509.607 614.27 505.946 603.737 501.733C593.305 497.42 583.625 492.705 574.697 487.589L600.126 448.919Z" fill="url(#paint0_radial_194_2258)" fill-opacity="0.6"/>
<path d="M114.649 3.70718H165.206L278.958 238.886H228.853L210.045 199.313H72.6689L54.4624 238.886H4.20667L114.649 3.70718ZM191.236 160.042L140.379 53.2106L90.8753 160.042H191.236ZM302.768 119.867C302.768 103.115 305.928 87.5169 312.247 73.0722C318.567 58.5271 327.695 45.9381 339.632 35.3051C351.67 24.5718 366.315 16.1457 383.568 10.0268C400.922 3.9078 420.533 0.848315 442.401 0.848315C461.56 0.848315 479.115 2.80438 495.064 6.7165C511.114 10.5283 526.01 16.3965 539.753 24.3211L517.784 60.433C513.672 57.7246 508.907 55.3171 503.49 53.2106C498.174 51.1041 492.456 49.3486 486.337 47.9443C480.318 46.4396 474.049 45.286 467.529 44.4836C461.109 43.6811 454.739 43.2798 448.419 43.2798C433.172 43.2798 419.58 45.1857 407.643 48.9976C395.706 52.7091 385.625 57.9754 377.399 64.7965C369.274 71.5174 363.055 79.5924 358.742 89.0216C354.528 98.3505 352.422 108.632 352.422 119.867C352.422 131.503 354.629 142.186 359.042 151.917C363.456 161.647 369.826 170.073 378.152 177.195C386.578 184.217 396.81 189.734 408.847 193.746C420.984 197.658 434.677 199.614 449.924 199.614C456.846 199.614 463.717 199.113 470.538 198.11C477.359 197.107 483.93 195.752 490.249 194.047C496.669 192.242 502.838 190.135 508.756 187.728C514.675 185.22 520.192 182.511 525.308 179.602L547.276 215.714C534.436 223.94 519.59 230.41 502.738 235.124C485.886 239.739 467.98 242.046 449.021 242.046C424.846 242.046 403.631 238.936 385.374 232.717C367.117 226.397 351.87 217.771 339.632 206.837C327.394 195.803 318.166 182.862 311.946 168.016C305.828 153.07 302.768 137.02 302.768 119.867ZM587.186 119.867C587.186 103.115 590.345 87.5169 596.665 73.0722C602.985 58.5271 612.113 45.9381 624.05 35.3051C636.087 24.5718 650.733 16.1457 667.986 10.0268C685.34 3.9078 704.951 0.848315 726.818 0.848315C745.978 0.848315 763.532 2.80438 779.482 6.7165C795.531 10.5283 810.428 16.3965 824.17 24.3211L802.202 60.433C798.089 57.7246 793.325 55.3171 787.908 53.2106C782.591 51.1041 776.874 49.3486 770.755 47.9443C764.736 46.4396 758.466 45.286 751.946 44.4836C745.526 43.6811 739.157 43.2798 732.837 43.2798C717.59 43.2798 703.998 45.1857 692.061 48.9976C680.124 52.7091 670.042 57.9754 661.817 64.7965C653.692 71.5174 647.472 79.5924 643.159 89.0216C638.946 98.3505 636.839 108.632 636.839 119.867C636.839 131.503 639.046 142.186 643.46 151.917C647.874 161.647 654.243 170.073 662.569 177.195C670.995 184.217 681.227 189.734 693.264 193.746C705.402 197.658 719.094 199.614 734.342 199.614C741.263 199.614 748.134 199.113 754.956 198.11C761.777 197.107 768.347 195.752 774.667 194.047C781.087 192.242 787.256 190.135 793.174 187.728C799.092 185.22 804.609 182.511 809.725 179.602L831.693 215.714C818.854 223.94 804.008 230.41 787.155 235.124C770.303 239.739 752.398 242.046 733.439 242.046C709.264 242.046 688.048 238.936 669.792 232.717C651.535 226.397 636.288 217.771 624.05 206.837C611.812 195.803 602.583 182.862 596.364 168.016C590.245 153.07 587.186 137.02 587.186 119.867ZM21.5103 283.707H221.781V325.537H69.2081V372.482H204.327V411.754H69.2081V477.207H224.941V518.886H21.5103V283.707ZM290.43 448.919C298.956 453.734 307.583 458.098 316.31 462.01C325.137 465.822 334.266 469.082 343.695 471.79C353.124 474.398 363.005 476.404 373.337 477.809C383.769 479.213 394.853 479.915 406.59 479.915C420.734 479.915 432.771 479.013 442.702 477.207C452.633 475.301 460.708 472.743 466.927 469.533C473.246 466.223 477.811 462.311 480.619 457.797C483.528 453.283 484.983 448.368 484.983 443.051C484.983 434.525 481.422 427.804 474.3 422.889C467.178 417.873 456.194 415.365 441.348 415.365C434.827 415.365 427.956 415.817 420.734 416.719C413.511 417.522 406.189 418.425 398.766 419.428C391.443 420.431 384.17 421.384 376.948 422.287C369.826 423.089 363.105 423.49 356.785 423.49C346.253 423.49 336.121 422.136 326.391 419.428C316.761 416.719 308.185 412.657 300.661 407.24C293.238 401.823 287.32 395.052 282.906 386.927C278.493 378.802 276.286 369.323 276.286 358.489C276.286 352.069 277.139 345.699 278.844 339.38C280.649 333.06 283.458 327.041 287.27 321.324C291.182 315.506 296.198 310.139 302.317 305.224C308.436 300.208 315.808 295.895 324.435 292.284C333.162 288.673 343.193 285.864 354.528 283.858C365.964 281.751 378.954 280.698 393.499 280.698C404.032 280.698 414.615 281.3 425.248 282.503C435.881 283.607 446.213 285.212 456.244 287.318C466.375 289.425 476.105 291.983 485.434 294.992C494.763 297.901 503.44 301.161 511.465 304.772L490.55 343.292C483.93 340.383 476.807 337.725 469.184 335.317C461.56 332.809 453.585 330.653 445.26 328.847C436.934 327.041 428.307 325.637 419.379 324.634C410.552 323.531 401.524 322.979 392.296 322.979C379.155 322.979 368.321 323.932 359.795 325.838C351.369 327.744 344.648 330.201 339.632 333.211C334.617 336.12 331.106 339.43 329.1 343.141C327.194 346.753 326.241 350.364 326.241 353.975C326.241 360.997 329.401 366.765 335.72 371.279C342.04 375.692 351.67 377.899 364.61 377.899C369.826 377.899 375.794 377.548 382.515 376.846C389.336 376.043 396.458 375.191 403.881 374.288C411.405 373.385 419.028 372.583 426.752 371.88C434.577 371.078 442.15 370.677 449.473 370.677C463.316 370.677 475.554 372.232 486.187 375.341C496.92 378.451 505.898 382.915 513.12 388.733C520.342 394.45 525.809 401.422 529.521 409.648C533.232 417.773 535.088 426.901 535.088 437.032C535.088 450.574 531.928 462.662 525.609 473.295C519.389 483.827 510.462 492.755 498.826 500.078C487.29 507.3 473.347 512.817 456.996 516.629C440.645 520.341 422.439 522.196 402.377 522.196C389.136 522.196 376.196 521.344 363.556 519.638C350.917 518.033 338.78 515.726 327.144 512.717C315.608 509.607 304.574 505.946 294.041 501.733C283.609 497.42 273.929 492.705 265.001 487.589L290.43 448.919ZM600.126 448.919C608.652 453.734 617.279 458.098 626.006 462.01C634.833 465.822 643.962 469.082 653.391 471.79C662.82 474.398 672.701 476.404 683.033 477.809C693.465 479.213 704.549 479.915 716.286 479.915C730.43 479.915 742.467 479.013 752.398 477.207C762.328 475.301 770.403 472.743 776.623 469.533C782.942 466.223 787.506 462.311 790.315 457.797C793.224 453.283 794.679 448.368 794.679 443.051C794.679 434.525 791.118 427.804 783.996 422.889C776.874 417.873 765.889 415.365 751.043 415.365C744.523 415.365 737.652 415.817 730.43 416.719C723.207 417.522 715.884 418.425 708.461 419.428C701.139 420.431 693.866 421.384 686.644 422.287C679.522 423.089 672.801 423.49 666.481 423.49C655.949 423.49 645.817 422.136 636.087 419.428C626.457 416.719 617.881 412.657 610.357 407.24C602.934 401.823 597.016 395.052 592.602 386.927C588.189 378.802 585.982 369.323 585.982 358.489C585.982 352.069 586.834 345.699 588.54 339.38C590.345 333.06 593.154 327.041 596.966 321.324C600.878 315.506 605.894 310.139 612.013 305.224C618.131 300.208 625.504 295.895 634.131 292.284C642.858 288.673 652.889 285.864 664.224 283.858C675.66 281.751 688.65 280.698 703.195 280.698C713.728 280.698 724.311 281.3 734.944 282.503C745.576 283.607 755.909 285.212 765.94 287.318C776.071 289.425 785.801 291.983 795.13 294.992C804.459 297.901 813.136 301.161 821.161 304.772L800.246 343.292C793.625 340.383 786.503 337.725 778.88 335.317C771.256 332.809 763.281 330.653 754.956 328.847C746.63 327.041 738.003 325.637 729.075 324.634C720.248 323.531 711.22 322.979 701.991 322.979C688.851 322.979 678.017 323.932 669.491 325.838C661.065 327.744 654.344 330.201 649.328 333.211C644.313 336.12 640.802 339.43 638.796 343.141C636.89 346.753 635.937 350.364 635.937 353.975C635.937 360.997 639.096 366.765 645.416 371.279C651.736 375.692 661.365 377.899 674.306 377.899C679.522 377.899 685.49 377.548 692.211 376.846C699.032 376.043 706.154 375.191 713.577 374.288C721.101 373.385 728.724 372.583 736.448 371.88C744.272 371.078 751.846 370.677 759.169 370.677C773.012 370.677 785.249 372.232 795.882 375.341C806.616 378.451 815.594 382.915 822.816 388.733C830.038 394.45 835.505 401.422 839.217 409.648C842.928 417.773 844.784 426.901 844.784 437.032C844.784 450.574 841.624 462.662 835.305 473.295C829.085 483.827 820.158 492.755 808.522 500.078C796.986 507.3 783.043 512.817 766.692 516.629C750.341 520.341 732.135 522.196 712.073 522.196C698.832 522.196 685.892 521.344 673.252 519.638C660.613 518.033 648.476 515.726 636.839 512.717C625.304 509.607 614.27 505.946 603.737 501.733C593.305 497.42 583.625 492.705 574.697 487.589L600.126 448.919Z" fill="url(#paint1_radial_194_2258)" fill-opacity="0.5"/>
</g>
<defs>
<filter id="filter0_d_194_2258" x="0.206543" y="0.848267" width="848.578" height="529.348" filterUnits="userSpaceOnUse" color-interpolation-filters="sRGB">
<feFlood flood-opacity="0" result="BackgroundImageFix"/>
<feColorMatrix in="SourceAlpha" type="matrix" values="0 0 0 0 0 0 0 0 0 0 0 0 0 0 0 0 0 0 127 0" result="hardAlpha"/>
<feOffset dy="4"/>
<feGaussianBlur stdDeviation="2"/>
<feComposite in2="hardAlpha" operator="out"/>
<feColorMatrix type="matrix" values="0 0 0 0 0 0 0 0 0 0 0 0 0 0 0 0 0 0 0.25 0"/>
<feBlend mode="normal" in2="BackgroundImageFix" result="effect1_dropShadow_194_2258"/>
<feBlend mode="normal" in="SourceGraphic" in2="effect1_dropShadow_194_2258" result="shape"/>
</filter>
<radialGradient id="paint0_radial_194_2258" cx="0" cy="0" r="1" gradientUnits="userSpaceOnUse" gradientTransform="translate(60.5357 419.257) rotate(-28.1094) scale(287.109 693.863)">
<stop offset="0.0520833" stop-color="#000E1C"/>
<stop offset="0.5" stop-color="#002137" stop-opacity="0"/>
</radialGradient>
<radialGradient id="paint1_radial_194_2258" cx="0" cy="0" r="1" gradientUnits="userSpaceOnUse" gradientTransform="translate(823.415 203.763) rotate(-169.347) scale(152.052 370.033)">
<stop offset="0.447917"/>
<stop offset="1" stop-opacity="0"/>
</radialGradient>
</defs>
</svg>
