<svg width="255" height="270" fill="none" xmlns="http://www.w3.org/2000/svg"><g fill="#005595" transform="translate(-.499 -.591)"><circle cx="18.275" cy="18.367" r="17.776"/><circle cx="72.921" cy="18.367" r="17.776"/><circle cx="127.567" cy="18.367" r="17.776"/><circle cx="182.213" cy="18.367" r="17.776"/><circle cx="236.859" cy="18.367" r="17.776"/></g><g fill="#005595" transform="translate(-.499 46.293)"><circle cx="18.275" cy="18.367" r="17.776"/><circle cx="72.921" cy="18.367" r="17.776"/><circle cx="127.567" cy="18.367" r="17.776"/><circle cx="182.213" cy="18.367" r="17.776"/><circle cx="236.859" cy="18.367" r="17.776"/></g><g fill="#005595" transform="translate(-.499 93.177)"><circle cx="18.275" cy="18.367" r="17.776"/><circle cx="72.921" cy="18.367" r="17.776"/><circle cx="127.567" cy="18.367" r="17.776"/><circle cx="182.213" cy="18.367" r="17.776"/><circle cx="236.859" cy="18.367" r="17.776"/></g><g fill="#005595" transform="translate(-.499 140.061)"><circle cx="18.275" cy="18.367" r="17.776"/><circle cx="72.921" cy="18.367" r="17.776"/><circle cx="127.567" cy="18.367" r="17.776"/><circle cx="182.213" cy="18.367" r="17.776"/><circle cx="236.859" cy="18.367" r="17.776"/></g><g fill="#005595" transform="translate(-.499 186.945)"><circle cx="18.275" cy="18.367" r="17.776"/><circle cx="72.921" cy="18.367" r="17.776"/><circle cx="127.567" cy="18.367" r="17.776"/><circle cx="182.213" cy="18.367" r="17.776"/><circle cx="236.859" cy="18.367" r="17.776"/></g><g fill="#005595" transform="translate(-.499 233.83)"><circle cx="18.275" cy="18.367" r="17.776"/><circle cx="72.921" cy="18.367" r="17.776"/><circle cx="127.567" cy="18.367" r="17.776"/><circle cx="182.213" cy="18.367" r="17.776"/><circle cx="236.859" cy="18.367" r="17.776"/></g></svg>