<svg width="641" height="397" fill="none" xmlns="http://www.w3.org/2000/svg"><path d="M68.281 6.209c-1.709-.53-5.827-1.815-10.277-3.232L51.262.818a5.073 5.073 0 0 0 0 3.166 4.344 4.344 0 0 0-3.072 4.41c.099.48.099.976 0 1.457-.384 1.086-1.934 1.072-3.046.781a25.525 25.525 0 0 1-5.88-2.397c-2.411-1.324-5.219-3.179-7.722-1.987-1.324 6.291.093 12.794.503 19.217a75.357 75.357 0 0 1-6.224 33.521A150.044 150.044 0 0 1 8.603 88.653c-.701 11.085-.993 23.508-5.575 33.626a13.593 13.593 0 0 0-2.053 4.967c-.543 3.774 1.232 6.171 2.106 9.416 1.324 4.954-.583 7.735-1.153 12.41a12.17 12.17 0 0 0 0 4.794c.676 2.729 2.239 4.093 3.616 5.801.384.49 4.914 6.37 5.125 13.059.133 4.45-1.748 5.933-.33 8.794 1.244 2.503 3.125 2.278 3.973 4.622 1.139 3.006-1.417 4.794-1.696 8.794-.278 4 2.172 5.92 4.967 11.588a45.315 45.315 0 0 1 4.172 13.602 7.668 7.668 0 0 0 2.463 8.384c2.397 1.854 5.377 2.741 8.132 3.973 7.655 3.589 13.35 10.277 18.78 16.753 2.821 3.364 5.761 7.02 6.172 11.377.159 1.775 0 3.775 1.152 5.099a4.883 4.883 0 0 0 2.41 1.324c5.377 1.497 13.244 1.06 19.138 1.643 2.288.227 4.555.63 6.78 1.205a6.105 6.105 0 0 0 .173 3.258c.874 2.463 3.39 3.563 4.967 4.304 7.032 3.391 1.218 1.523 13.403 7.457 6.33 3.072 6.913 3.099 9.601 4.794 2.689 1.695 3.205 2.357 5.934 3.814a52.545 52.545 0 0 0 7.363 3.218c5.298 1.802 2.954 1.762 18.198 3.868l18.051 2.609c1.219.172 3.417.821 5.179-.358 2.053-1.324 2.331-4.331 2.37-5.695 5.06.265 9.205.729 12.145 1.113 5.642.741 6.887 1.232 7.947 1.814 3.589 2.013 3.973 4.596 7.125 8.609 4.953 6.344 7.469 4.397 11.416 9.602 4.569 6.026 1.205 8.648 6.344 16.356 2.53 3.801 5.02 5.669 9.88 9.271 2.649 1.987 4.278 2.861 5.96 2.477 1.881-.411 2.543-2.119 4.635-4.967 2.901-3.973 4.768-6.489 7.655-7.708 5.02-2.132 11.245.49 13.907 2.344a24.482 24.482 0 0 1 6.913 7.284c3.735 5.457 3.973 8.106 7.84 17.125.53 1.258 3.523 7.019 9.483 18.542a27.812 27.812 0 0 0 5.033 7.151 23.483 23.483 0 0 0 6.516 4.848 58.479 58.479 0 0 0 19.071 5.006 50.326 50.326 0 0 1 .61-24.78 26.088 26.088 0 0 1 3.681-8.237c3.669-5.126 9.722-7.947 15.496-10.423a53.204 53.204 0 0 0 16.793-11.549 20.178 20.178 0 0 1 5.007-4.437c3.072-1.589 6.767-1.086 10.184-.556l8.251 1.324a125.642 125.642 0 0 1 19.323 4.079c3.973 1.325 8.437 3.02 12.33 1.325a46.039 46.039 0 0 1 4.119-2.066c4.927-1.51 10.198 3.748 15.046 1.947a27.888 27.888 0 0 1-5.642-13.178 6.04 6.04 0 0 1 .317-2.861 7.81 7.81 0 0 1 2.265-3.033c3.444-2.768 15.774-2.556 23.402-2.861 4.08-.172 12.079-.702 18.317.663a9.267 9.267 0 0 1 5.96 3.311c1.112 1.576.688 2.542 1.509 3.244 2.278 1.894 7.695-2.556 14.185-5.085 7.337-2.861 15.283 2.49 20.488 8.41 3.272 3.721 6.304 8.463 5.298 13.336-.57 2.861-2.185 6.53.252 8.145a9.48 9.48 0 0 1 1.403.848c.541.725.842 1.6.861 2.503.49 2.742 2.358 5.02 4.159 7.139 5.854 6.94 8.171 10.886 10.873 13.111 4.622 3.788 6.212 3.311 8.357 6.622 1.947 2.993 1.987 5.444 4.305 6.291a5.797 5.797 0 0 0 5.469-1.059 4.522 4.522 0 0 0 1.047-1.325 38.073 38.073 0 0 0 4.503-13.442c.847-9.496-4.464-18.317-9.179-26.594a298.188 298.188 0 0 1-21.455-46.46c-3.655-10.092 6.053-21.509 14.237-28.449a33.175 33.175 0 0 0 4.08-3.734c2.079-2.503 2.993-5.722 4.224-8.728 1.232-3.007 3.033-6.066 6.013-7.337 1.431-.61 3.02-.755 4.397-1.457 4.464-2.238 4.675-8.688 8.119-12.304 3.443-3.616 10.317-4.384 11.681-9.271l-2.582-3.059a2.17 2.17 0 0 1-.623-1.192c0-1.02 1.324-1.457 2.225-1.801 4.371-1.55 6.092-7.178 4.94-11.668-1.51-5.841-6.622-10.595-6.622-16.674.202-2.65.861-5.244 1.947-7.669a81.82 81.82 0 0 0 4.741-23.693c.358-7.496 3.139-13.946 4.901-21.191a18.371 18.371 0 0 1 2.066-5.721c2.052-3.232 5.814-4.847 8.913-7.112 3.099-2.265 5.615-5.298 8.41-7.947 5.695-5.377 12.582-9.27 19.349-13.244.41-.168.755-.466.98-.847.636-1.232-.41-3.47-1.496-3.603-1.086-.132-1.325 1.232-3.033 1.457-.304.035-.61.035-.914 0-2.967-.278-4.331-3.788-4.768-6.728a45.384 45.384 0 0 1 .662-16.422 14.205 14.205 0 0 1 2.172-5.298 23.515 23.515 0 0 1 4.609-3.973c7.722-6.066 12.172-15.972 20.82-20.608l-7.046-5.549a23.395 23.395 0 0 1-5.033-4.86 27.713 27.713 0 0 1-3.138-7.841 79.795 79.795 0 0 0-5.192-12.94 6.053 6.053 0 0 0-1.404-2.026 4.425 4.425 0 0 0-4.318-.49 16.092 16.092 0 0 0-3.867 2.397 1.455 1.455 0 0 1-.993.41c-.808-.079-.954-1.178-1.444-1.813-.861-1.087-2.754-.53-3.509.622a10.44 10.44 0 0 0-1.033 3.973c-.689 3.973-3.285 7.31-4.238 11.191-1.219 4.967.37 10.251-.557 15.27-1.006 5.444-4.94 10.026-9.668 12.887a43.016 43.016 0 0 1-15.707 5.02c-5.47.834-11.006 1.231-16.41 2.437-3.708 4.807-8.568 9.363-12.277 14.17a6.778 6.778 0 0 0-1.655 3.166c-.212 1.735.9 3.324 1.324 5.006 1.113 4.37-2.569 8.715-6.781 10.291-4.211 1.576-8.873 1.231-13.363 1.523-2.993.199-6.437 1.02-7.708 3.748s.371 6.105-.212 9.112c-.45 2.344-2.198 4.198-3.867 5.907-5.298 5.483-10.754 11.032-17.403 14.806-6.648 3.775-14.793 5.616-22.025 3.166a3.72 3.72 0 0 1-1.774-1.047 3.35 3.35 0 0 1-.504-2.397c.477-4.821 4.636-8.357 6.622-12.78 2.649-6.119.875-13.39-2.529-19.151a4.957 4.957 0 0 0-2.278-2.318c-2.079-.781-4.106 1.232-5.298 3.113-2.649 4.039-4.264 4.238-4.953 3.973-1.245-.45-1.179-4.795-.133-8.41 1.047-3.616 2.305-3.735 3.179-6.887.291-1.046 1.801-6.49-1.139-10.277-2.185-2.782-5.682-3.272-9.443-3.801a14.395 14.395 0 0 0-6.291.172 13.698 13.698 0 0 0-6.119 3.8c-2.648 2.57-12.303 13.801-9.827 27.813 1.418 8.092 4.57 8.715 5.298 16.449a16.29 16.29 0 0 1-6.516 14.344 3.976 3.976 0 0 1-2.755 1.006 3.77 3.77 0 0 1-1.92-1.006c-3.007-2.649-4.49-6.543-5.43-10.41-2.874-11.801-1.748-24.157-.596-36.25.821-8.594 2.039-11.084 3.721-13.495.477-.675 6.053-8.436 14.767-9.165 3.431-.278 10.741.252 17.218.345.662 0 2.198 0 2.648-.835.57-1.072-.993-2.9-1.178-3.099-.755-.86-1.894-2.264-6.238-2.808-3.06-.384-6.953 0-8.437-2.648-.344-.61-.529-1.325-1.125-1.735a2.652 2.652 0 0 0-2.278.132l-9.655 3.735a18.458 18.458 0 0 1-5.775 1.523c-2.019-.032-4.02-.399-5.92-1.086l-8.781-2.649c-.49-.145-1.059-.37-1.205-.874-.145-.503.345-1.112.517-1.324a16.896 16.896 0 0 0 2.556-4.86 30.687 30.687 0 0 0-5.165 1.84c-4.874 2.291-6.622 4.82-13.099 8.94-4.37 2.794-5.774 3.06-7.045 2.649-2.437-.65-3.722-3.298-4.265-4.662-1.616.432-3.271.874-4.966 1.324-2.053.49-4.08.94-6.04 1.325-.596-2.186 1.417-4.133 3.245-5.484a81.703 81.703 0 0 1 9.668-6.74 94.673 94.673 0 0 0 10.238-6.729l-10.595-1.735c-1.073.583-2.053-2.264-3.272-2.225-.303.05-.59.172-.834.358-2.649 1.642-6.159 1.073-9.046-.133-2.887-1.205-5.549-3.02-8.582-3.814-3.576-.927-7.337-.384-11.032-.53-3.695-.145-7.735-1.244-9.695-4.37-.993-1.59-1.324-3.563-2.649-4.887-1.324-1.325-4.211-1.179-4.423.675 0 .477.106.98 0 1.457-.238 1.325-2 1.656-3.377 1.669-30.726.172-61.492-.106-92.086-2.98-43.983-4.159-86.96-8.714-130.162-17.972-3.695-.795-16.86-4.265-22.197-5.629-8.887-2.265-12.98-3.337-18.118-4.913z" fill="#298FCE"/></svg>